<svg xmlns="http://www.w3.org/2000/svg" xmlns:xlink="http://www.w3.org/1999/xlink" viewBox="0 0 180.27 227.25"><defs><style>.a{fill:url(#a);}</style><linearGradient id="a" x1="207.46" y1="421.1" x2="387.73" y2="421.1" gradientUnits="userSpaceOnUse"><stop offset="0" stop-color="#ef569d"/><stop offset="0.15" stop-color="#c85aa1"/><stop offset="0.34" stop-color="#9d5ea6"/><stop offset="0.53" stop-color="#7c61aa"/><stop offset="0.7" stop-color="#6463ad"/><stop offset="0.86" stop-color="#5565ae"/><stop offset="1" stop-color="#5065af"/></linearGradient></defs><title>herewego-favicon</title><path class="a" d="M284.3,428.87c-6.07,33.35-12,65.86-17.91,98.37-1.41,7.73-2,8-9.9,7.16q-14-1.5-28-2.67c-3.43-.29-5-1.29-4.65-5.28,2-23.17,3.59-46.36,5.41-69.54q2.14-27.28,4.47-54.55c0.41-4.85-1.37-7.68-6.32-8.53-4.44-.76-8.82-2-13.26-2.71s-6.86-3.1-6.67-7.83c0.13-3.23-.08-6.47.06-9.7s1.7-4.62,5.06-4.18c6.08,0.8,12.2,1.33,18.29,2.11,3.67,0.47,5.56.23,5.85-4.63,1.11-18.21,3-36.37,4.43-54.56,0.28-3.43,1.2-5.29,5.25-4.76q25.93,3.4,51.91,6.4c4.53,0.53,6.36,1.92,5.34,7.11-4,20.26-7.24,40.66-11.22,60.92-1,5.05.54,7.41,4.83,9.41a174.09,174.09,0,0,1,61.11,46.68,125.67,125.67,0,0,1,29.24,70.44,45.08,45.08,0,0,1,.06,5.33c-0.16,5.77-1.69,7.36-7.25,8.23-15.62,2.43-31.23,5-46.84,7.44-1.12.18-2.26,0.21-3.36,0.47-4.52,1.08-6.21-.92-6.2-5.28a146.94,146.94,0,0,0-3.23-30.78,133.64,133.64,0,0,0-29.93-60,30,30,0,0,0-4-3.48A29.3,29.3,0,0,0,284.3,428.87Z" transform="translate(-207.46 -307.48)"/></svg>